<?xml version="1.0" standalone="yes"?><svg xmlns="http://www.w3.org/2000/svg" xmlns:xlink="http://www.w3.org/1999/xlink" id="2cf41747-0c0c-4d70-aad4-093c093adad4" data-name="Layer 1" width="1022.84" height="813.16" viewBox="0 0 1022.84 813.16" style="zoom: 1;"><defs><linearGradient id="3cf802be-0480-4c68-848a-073112220499" x1="635.22" y1="545.34" x2="635.22" y2="43.42" gradientUnits="userSpaceOnUse"><stop offset="0" stop-color="gray" stop-opacity="0.25"></stop><stop offset="0.54" stop-color="gray" stop-opacity="0.12"></stop><stop offset="1" stop-color="gray" stop-opacity="0.1"></stop></linearGradient></defs><title>book lover</title><polygon points="435.45 690.5 93.17 688.83 59.16 609.06 179.42 600.33 158.46 512.87 396.32 482.04 168.55 402.86 188.67 398.08 554.92 457.83 534.75 594.32 505.92 669.33 435.45 690.5" fill="#8ebfa1"></polygon><path d="M187,698.84 s21,-3.36 33.6,11.48 c0,0 -9.24,7.28 -29.12,-2.8 " transform="translate(-88.58 -43.42)" fill="#8ebfa1"></path><path d="M184.8,698.51 S171.4,715 178,733.36 c0,0 10.92,-4.37 12.11,-26.63 " transform="translate(-88.58 -43.42)" fill="#8ebfa1"></path><path d="M172.76,671.4 s8.4,-15.41 42,6.16 c0,0 -4.48,10.36 -19.32,9.52 S176.68,679.52 172.76,671.4 " transform="translate(-88.58 -43.42)" fill="#8ebfa1"></path><path d="M170.59,670.29 s-17.43,-2 -19.12,37.9 c0,0 11.05,2.29 18.9,-10.33 S175,678.16 170.59,670.29 " transform="translate(-88.58 -43.42)" fill="#8ebfa1"></path><path d="M160.44,638.46 s9.8,-27.16 45.36,-7.84 c0,0 -8.12,24.92 -41.72,17.08 " transform="translate(-88.58 -43.42)" fill="#8ebfa1"></path><path d="M149.52,597.86 s18.48,-27.44 51.24,-2 c0,0 -11.48,25.76 -48.44,11.76 " transform="translate(-88.58 -43.42)" fill="#8ebfa1"></path><path d="M145.6,559.22 s21.56,-25.21 54,0 c0,0 -20.44,22.12 -54,6.44 " transform="translate(-88.58 -43.42)" fill="#8ebfa1"></path><path d="M142.24,521.69 s21.84,-26.32 52.92,-1.4 c0,0 -24.64,23.24 -52.92,7.56 " transform="translate(-88.58 -43.42)" fill="#8ebfa1"></path><path d="M144.2,488.37 s23,-33.88 52.08,-10.92 c0,0 -24.64,29.12 -52.08,17.36 " transform="translate(-88.58 -43.42)" fill="#8ebfa1"></path><path d="M149.52,449.45 s24.36,-33.6 52.64,-7.84 c0,0 -28.84,29.12 -52.64,14 " transform="translate(-88.58 -43.42)" fill="#8ebfa1"></path><path d="M157.64,414.66 s28.84,-31.58 54,-19 c0,0 -30.05,33.54 -55.26,27.38 " transform="translate(-88.58 -43.42)" fill="#8ebfa1"></path><path d="M167.72,381.68 S201,343 220.36,355.92 c0,0 -24.52,30 -55,33 " transform="translate(-88.58 -43.42)" fill="#8ebfa1"></path><path d="M182.27,343.43 s29.13,-31.58 50.41,-23.74 c0,0 -24.92,32.76 -54.32,33.6 " transform="translate(-88.58 -43.42)" fill="#8ebfa1"></path><path d="M195.44,307.65 s32.2,-30.24 46.2,-24.92 c0,0 -23.24,33.6 -47.6,31.64 " transform="translate(-88.58 -43.42)" fill="#8ebfa1"></path><path d="M208.32,274.61 s27.72,-36.13 42.85,-33.33 c0,0 -16.81,32.21 -42.85,37 " transform="translate(-88.58 -43.42)" fill="#8ebfa1"></path><path d="M222.3,230.06 s24.5,-27.69 37.74,-27.63 c0,0 -19.34,37 -38.75,36.66 " transform="translate(-88.58 -43.42)" fill="#8ebfa1"></path><path d="M230.58,200.4 l23.67,-57.68 s1.18,52.14 -26.68,68.38 " transform="translate(-88.58 -43.42)" fill="#8ebfa1"></path><path d="M240.19,136.79 s3.92,-48.17 1.4,-52.09 c0,0 16.92,40.05 -1.56,73.37 " transform="translate(-88.58 -43.42)" fill="#8ebfa1"></path><path d="M159.52,637.82 s-24.54,-15.21 -40.43,22 c0,0 21.84,14.5 43.32,-12.51 " transform="translate(-88.58 -43.42)" fill="#8ebfa1"></path><path d="M148.73,596.31 s-30.1,-13.73 -44.7,25.12 c0,0 23.25,16 47.44,-15.3 " transform="translate(-88.58 -43.42)" fill="#8ebfa1"></path><path d="M144.2,561.53 s-21.56,-25.21 -54,0 c0,0 20.44,22.12 54,6.44 " transform="translate(-88.58 -43.42)" fill="#8ebfa1"></path><path d="M141.5,521.69 s-21.84,-26.32 -52.92,-1.4 c0,0 24.64,23.24 52.92,7.56 " transform="translate(-88.58 -43.42)" fill="#8ebfa1"></path><path d="M144.2,489.33 s-15.32,-37.95 -48.62,-21.63 c0,0 18,33.65 47.26,27.93 " transform="translate(-88.58 -43.42)" fill="#8ebfa1"></path><path d="M151.45,449.26 s-15.23,-38.61 -49,-20.71 c0,0 20.68,35.39 47.5,26.67 " transform="translate(-88.58 -43.42)" fill="#8ebfa1"></path><path d="M160.89,414.85 s-6,-42.33 -34,-46.12 c0,0 5.94,44.64 30.23,53.75 " transform="translate(-88.58 -43.42)" fill="#8ebfa1"></path><path d="M168.43,381.76 s-2.34,-51 -25.49,-52.78 c0,0 .78,38.71 22.88,60 " transform="translate(-88.58 -43.42)" fill="#8ebfa1"></path><path d="M184.67,342 s-6.9,-42.41 -29,-47.59 c0,0 2.74,41.07 26.81,58 " transform="translate(-88.58 -43.42)" fill="#8ebfa1"></path><path d="M198.06,308 s-.23,-44.18 -13.73,-50.67 c0,0 -8.37,40 9.82,56.31 " transform="translate(-88.58 -43.42)" fill="#8ebfa1"></path><path d="M209.35,274.11 s-1.89,-45.49 -15.87,-51.9 c0,0 -4.78,36 13.78,54.88 " transform="translate(-88.58 -43.42)" fill="#8ebfa1"></path><path d="M224.25,233.69 s-.08,-37 -10.06,-45.68 c0,0 -9.92,40.53 4.85,53.12 " transform="translate(-88.58 -43.42)" fill="#8ebfa1"></path><path d="M229.41,198.58 M219.7,137 s-13.19,50.46 10.17,72.7 " transform="translate(-88.58 -43.42)" fill="#8ebfa1"></path><path d="M231.3,137.37 s-24.92,-41.4 -24.41,-46 c0,0 2.65,43.39 34,65 " transform="translate(-88.58 -43.42)" fill="#8ebfa1"></path><path d="M234.22,125.14 s-23.52,-58.8 -34.16,-63.56 c0,0 33.6,17.08 36.12,61.88 " transform="translate(-88.58 -43.42)" fill="#8ebfa1"></path><path d="M221.17,239.44 l-1.61,-.49 c19.85,-64.73 24.8,-106 13.95,-116.35 l1.15,-1.22 C246.17,132.3 241.5,173.12 221.17,239.44 " transform="translate(-88.58 -43.42)" fill="#444053"></path><path d="M166.51,391 l-2.38,-.85 c2.11,-5.93 4.38,-11.95 6.76,-17.88 c20.72,-51.64 38.36,-99.68 49.67,-136.56 l2.07,-1 c-11.33,36.95 -28.66,86.83 -49.4,138.54 C170.86,379.07 168.6,385.06 166.51,391 " transform="translate(-88.58 -43.42)" fill="#444053"></path><path d="M216.59,747.28 c-.32,-.35 -32.49,-36.58 -54.92,-98.43 A364.18,364.18 0 0 1 140,536.07 c-1.54,-48.13 8.56,-101.87 25.86,-150.69 l1.88,2.2 c-38.84,109.57 -23.41,203.46 -2.94,260 c22.19,61.29 54,97.12 54.31,97.48 " transform="translate(-88.58 -43.42)" fill="#444053"></path><path d="M719.31,670.36 s-22.67,27.67 -4.67,69.5 l-181,78.5 L516.27,822 l-8,-35 l5.35,-44.17 V718.69 " transform="translate(-88.58 -43.42)" fill="#d5d6db"></path><polygon points="59.16 609.06 309.68 563.39 641.63 616.27 435.45 690.5 59.16 609.06" fill="#8ebfa1"></polygon><polygon points="59.16 609.06 309.68 563.39 641.63 616.27 435.45 690.5 59.16 609.06" fill="#8ebfa1"></polygon><path d="M147.74,652.47 s-23.43,44.39 3.57,85.39 l371.5,80.5 S499.75,783 524,733.92 " transform="translate(-88.58 -43.42)" fill="#8ebfa1"></path><path d="M147.74,652.47 s-23.43,44.39 3.57,85.39 l371.5,80.5 S499.75,783 524,733.92 " transform="translate(-88.58 -43.42)" opacity="0.1"></path><path d="M158.81,667.86 s-13.39,32.48 0,53.5 " transform="translate(-88.58 -43.42)" opacity="0.1"></path><path d="M522.81,818.36 l207.4,-88.5 s11.6,2.5 4.1,11 s-207.5,86 -207.5,86 l-375.5,-89 " transform="translate(-88.58 -43.42)" fill="#8ebfa1"></path><path d="M522.81,818.36 l207.4,-88.5 s11.6,2.5 4.1,11 s-207.5,86 -207.5,86 l-375.5,-89 " transform="translate(-88.58 -43.42)" opacity="0.1"></path><path d="M505.81,742.86 s-20,24 0,60 " transform="translate(-88.58 -43.42)" opacity="0.1"></path><rect x="510.68" y="757.36" width="94.57" height="1" transform="translate(-299.77 172.15) rotate(-18.45)" opacity="0.1"></rect><rect x="509.35" y="759.86" width="115.23" height="1" transform="translate(-321.85 207.81) rotate(-20.82)" opacity="0.1"></rect><rect x="508.7" y="764.61" width="133.56" height="1" transform="translate(-335.51 231.58) rotate(-22.26)" opacity="0.1"></rect><rect x="508.37" y="766.53" width="153.74" height="1" transform="translate(-352.49 265.59) rotate(-24.31)" opacity="0.1"></rect><rect x="509.21" y="768.64" width="168.15" height="1" transform="translate(-346.96 258.59) rotate(-23.61)" opacity="0.1"></rect><rect x="510.33" y="769.26" width="201.22" height="1" transform="translate(-343.72 261.93) rotate(-23.36)" opacity="0.1"></rect><polygon points="152.23 613.94 328.23 576.94 435.45 597.44 291.23 643.94 152.23 613.94" fill="#fff" opacity="0.3"></polygon><path d="M730.21,659.69 s9.1,3.67 3.76,9.34 S524,733.92 524,733.92 " transform="translate(-88.58 -43.42)" fill="#8ebfa1"></path><path d="M818.6,574.18 s-22.66,27.66 -4.66,69.5 l-181,78.5 l-17.37,3.66 l-8,-35 L613,646.68 V622.51 " transform="translate(-88.58 -43.42)" fill="#d5d6db"></path><polygon points="158.46 512.87 408.97 467.21 740.93 520.09 534.75 594.32 158.46 512.87" fill="#3a3768"></polygon><path d="M247,556.29 s-23.44,44.39 3.56,85.39 l371.5,80.5 s-23.05,-35.39 1.23,-84.45 " transform="translate(-88.58 -43.42)" fill="#3a3768"></path><path d="M247,556.29 s-23.44,44.39 3.56,85.39 l371.5,80.5 s-23.05,-35.39 1.23,-84.45 L505.81,612.3 " transform="translate(-88.58 -43.42)" opacity="0.1"></path><path d="M258.1,571.68 s-13.38,32.47 0,53.5 " transform="translate(-88.58 -43.42)" opacity="0.1"></path><path d="M622.1,722.18 l207.41,-88.5 s11.59,2.5 4.09,11 s-207.5,86 -207.5,86 l-375.5,-89 " transform="translate(-88.58 -43.42)" fill="#3a3768"></path><path d="M622.1,722.18 l207.41,-88.5 s11.59,2.5 4.09,11 s-207.5,86 -207.5,86 l-375.5,-89 " transform="translate(-88.58 -43.42)" opacity="0.1"></path><path d="M605.1,646.68 s-20,24 0,60 " transform="translate(-88.58 -43.42)" opacity="0.1"></path><rect x="609.97" y="661.18" width="94.57" height="1" transform="translate(-264.22 198.64) rotate(-18.45)" opacity="0.1"></rect><rect x="608.65" y="663.68" width="115.23" height="1" transform="translate(-281.17 236.83) rotate(-20.82)" opacity="0.1"></rect><rect x="608" y="668.43" width="133.56" height="1" transform="translate(-291.68 262.02) rotate(-22.26)" opacity="0.1"></rect><rect x="607.66" y="670.34" width="153.74" height="1" transform="translate(-304.07 297.94) rotate(-24.31)" opacity="0.1"></rect><rect x="608.51" y="672.45" width="168.15" height="1" transform="translate(-300.13 290.3) rotate(-23.61)" opacity="0.1"></rect><rect x="609.63" y="673.07" width="201.22" height="1" transform="translate(-297.44 293.41) rotate(-23.36)" opacity="0.1"></rect><polygon points="251.53 517.76 427.53 480.76 534.75 501.26 390.53 547.76 251.53 517.76" fill="#fff" opacity="0.45"></polygon><path d="M829.51,563.51 s9.09,3.67 3.76,9.33 s-209.94,64.89 -209.94,64.89 " transform="translate(-88.58 -43.42)" fill="#3a3768"></path><path d="M828,464.15 s-22.67,49.67 -4.67,91.5 l-181,56.5 L625,615.82 l-8,-35 l5.35,-44.17 V512.48 " transform="translate(-88.58 -43.42)" fill="#d5d6db"></path><polygon points="167.89 402.85 418.41 357.18 750.37 410.06 544.18 484.29 167.89 402.85" fill="#8ebfa1"></polygon><path d="M256.47,446.26 S233,490.65 260,531.65 l371.5,80.5 s-23.06,-35.39 1.22,-84.44 " transform="translate(-88.58 -43.42)" fill="#8ebfa1"></path><path d="M256.47,446.26 S233,490.65 260,531.65 l371.5,80.5 s-23.06,-35.39 1.22,-84.44 " transform="translate(-88.58 -43.42)" opacity="0.1"></path><path d="M267.54,461.65 s-13.39,32.48 0,53.5 " transform="translate(-88.58 -43.42)" opacity="0.1"></path><path d="M631.54,612.15 l207.4,-66.5 s11.6,2.5 4.1,11 s-207.5,64 -207.5,64 l-375.5,-89 " transform="translate(-88.58 -43.42)" fill="#8ebfa1"></path><path d="M631.54,612.15 l207.4,-66.5 s11.6,2.5 4.1,11 s-207.5,64 -207.5,64 l-375.5,-89 " transform="translate(-88.58 -43.42)" opacity="0.1"></path><path d="M614.54,536.65 s-20,24 0,60 " transform="translate(-88.58 -43.42)" opacity="0.1"></path><rect x="619.41" y="551.15" width="94.57" height="1" transform="translate(-228.91 195.97) rotate(-18.45)" opacity="0.1"></rect><rect x="618.08" y="553.65" width="115.23" height="1" transform="translate(-241.44 233) rotate(-20.82)" opacity="0.1"></rect><rect x="617.43" y="558.4" width="133.56" height="1" transform="translate(-249.3 257.4) rotate(-22.26)" opacity="0.1"></rect><rect x="617.1" y="560.32" width="153.74" height="1" transform="translate(-257.94 292.06) rotate(-24.31)" opacity="0.1"></rect><rect x="617.95" y="562.43" width="168.15" height="1" transform="translate(-255.27 284.87) rotate(-23.61)" opacity="0.1"></rect><rect x="619.07" y="563.05" width="201.22" height="1" transform="translate(-253.04 288.14) rotate(-23.36)" opacity="0.1"></rect><polygon points="260.96 407.73 436.96 370.73 544.18 391.23 399.96 437.73 260.96 407.73" fill="#fff" opacity="0.3"></polygon><path d="M838.94,453.48 s9.1,3.67 3.76,9.34 s-209.94,64.89 -209.94,64.89 " transform="translate(-88.58 -43.42)" fill="#8ebfa1"></path><path d="M399,149.92 s-38,-2.29 -33.56,24.37 c0,0 -.89,4.71 3.38,6.85 c0,0 .07,-2 3.9,-1.31 a17.05,17.05 0 0 0 4.14,.2 a8.62,8.62 0 0 0 5.05,-2.08 h0 s10.69,-4.42 14.85,-21.9 c0,0 3.08,-3.81 3,-4.79 L393.32,154 s2.19,4.63 .47,8.48 c0,0 -.21,-8.31 -1.45,-8.12 c-.25,0 -3.33,1.61 -3.33,1.61 s3.77,8.07 .92,13.93 c0,0 1.08,-9.94 -2.1,-13.35 l-4.52,2.64 s4.41,8.33 1.42,15.13 c0,0 .77,-10.43 -2.37,-14.49 l-4.1,3.2 s4.15,8.21 1.62,13.85 c0,0 -.33,-12.14 -2.5,-13.06 c0,0 -3.59,3.16 -4.13,4.46 c0,0 2.84,6 1.07,9.11 c0,0 -1.07,-8.09 -2,-8.13 c0,0 -3.57,5.36 -3.94,9 a19.46,19.46 0 0 1 3.07,-9.54 a10.71,10.71 0 0 0 -5.46,2.83 s.55,-3.79 6.35,-4.12 c0,0 2.95,-4.07 3.74,-4.31 c0,0 -5.77,-.49 -9.26,1.06 c0,0 3.08,-3.57 10.31,-2 l4,-3.3 s-7.58,-1 -10.8,.11 c0,0 3.71,-3.16 11.89,-.86 l4.41,-2.63 s-6.47,-1.39 -10.32,-.89 c0,0 4.06,-2.19 11.61,.18 l3.14,-1.41 s-4.73,-.93 -6.12,-1.08 s-1.46,-.53 -1.46,-.53 a16.51,16.51 0 0 1 8.9,1 S399.13,150.34 399,149.92 " transform="translate(-88.58 -43.42)" fill="#8ebfa1"></path><path d="M691.17,790.14 s-37.86,19.56 -18.3,42.6 c0,0 1.84,5 7.16,4.65 c0,0 -1.06,-1.94 3,-3.49 a19.51,19.51 0 0 0 4.09,-2.17 a9.61,9.61 0 0 0 3.66,-4.89 h0 s7.74,-10.36 1.74,-29.53 c0,0 .78,-5.42 .1,-6.3 l-4.6,6.31 s4.75,3.19 5.3,7.88 c0,0 -5,-7.87 -6,-7 c-.22,.18 -2.28,3.45 -2.28,3.45 s8.24,5.59 8.85,12.85 c0,0 -4.64,-10.17 -9.65,-11.62 L681.37,808 s9,5.48 10,13.72 c0,0 -5.23,-10.45 -10.57,-12.56 l-2.11,5.41 s8.68,5.52 9.48,12.38 c0,0 -7.26,-11.47 -9.87,-11.11 c0,0 -1.64,5.08 -1.42,6.65 c0,0 6.13,4.1 6.24,8.13 c0,0 -5.66,-7.15 -6.53,-6.68 c0,0 -.36,7.19 1.38,10.93 c0,0 -3,-5.34 -2.51,-10.93 a12,12 0 0 0 -3.63,5.84 s-1.63,-3.95 3.74,-7.59 c0,0 .51,-5.59 1.13,-6.28 c0,0 -5.81,2.84 -8.28,6.32 c0,0 .91,-5.19 8.79,-7.77 l2,-5.48 s-7.88,3.34 -10.31,6.28 c0,0 1.75,-5.15 10.93,-7.62 l2.72,-5 s-7,2.36 -10.42,5 c0,0 2.65,-4.43 11.26,-6.47 l2.21,-3.15 s-5.08,1.81 -6.5,2.46 s-1.7,.33 -1.7,.33 a18.39,18.39 0 0 1 9.11,-4.14 S691.52,790.48 691.17,790.14 " transform="translate(-88.58 -43.42)" fill="#8ebfa1"></path><path d="M803.54,420.71 C797,402.94 761,401.27 745.38,405.8 c-11.1,3.23 -34.5,6.87 -47,8.7 l-.81,-.77 c1.62,-.48 1.66,-1.66 1.46,-3.41 a53.37,53.37 0 0 1 .1,-6.92 c7.66,2.38 14.48,-3.25 14.48,-3.25 h0 c9,-4 6.58,-21.12 8.3,-25.8 c1.29,-3.5 2.68,-24.12 3.3,-34.4 l.13,0 l.07,-3.45 c.09,-1.49 .13,-2.36 .13,-2.36 s.88,-25.14 2.6,-30.23 c1.6,-4.68 2.9,-28.26 3.1,-32 c0,-.32 0,-.49 0,-.49 l-.13,-2.18 c.09,-1.59 .13,-3.36 .12,-5.22 c0,-8.55 -.89,-19.32 -1,-21.06 c0,-.25 0,-.55 0,-.91 c.07,-3.65 -.39,-21.93 -15.94,-28.84 c-5.73,-2.56 -12.62,-5.61 -19.29,-8.58 c-1.72,-14.85 -5.65,-29.62 -5.31,-44.58 c0,-2.25 .2,-4.5 .42,-6.74 c0,.65 -.07,1.31 -.08,2 c0,1.45 0,2.91 0,4.36 c.59,-18.71 7.66,-37.52 7,-55.83 c-.06,1.79 -.19,3.59 -.36,5.39 a58.13,58.13 0 0 0 -1.92,-18.39 c-.6,-2.11 -1.41,-4.29 -3.14,-5.7 a12.93,12.93 0 0 0 -5.48,-2.17 a110.21,110.21 0 0 0 -14.39,-2.68 A22.22,22.22 0 0 0 668.5,74 c-10.14,-13.92 -25.16,-27 -42.92,-30 c-8.91,-1.5 -19.16,-.25 -25.22,6.12 a18.92,18.92 0 0 0 -1.78,1.8 c-3.26,3.89 -4.66,9 -8,12.88 c-.22,.26 -.47,.5 -.71,.75 c-6.54,5.85 -16.73,7.07 -24,12.32 A28.81,28.81 0 0 0 562.28,81 a60.88,60.88 0 0 0 -7.84,9.53 c-3.27,4.6 -6.63,9.39 -7.67,14.88 c-2.09,11 5.4,21.43 6.79,32.5 c3.1,24.77 -24.31,46.75 -19.12,71.19 a32.6,32.6 0 0 0 8.82,15.83 C532.57,234.61 523.47,244 523.47,244 l0,.56 l-1.69,0 l.17,2 h-.17 l.93,10.85 l-.93,15.8 s0,.17 0,.49 v.08 l0,.43 s0,.17 0,.49 h.06 c.31,5.79 1.54,26.61 3,31 c1.72,5.09 2.59,30.23 2.59,30.23 s1.9,35.53 3.64,40.23 s-.73,21.77 8.3,25.8 h0 a19,19 0 0 0 9.07,3.76 c-.46,3.74 -.17,6.45 1.32,7.3 a4.36,4.36 0 0 0 2.1,.6 a22.29,22.29 0 0 0 -1.63,2.85 A42.36,42.36 0 0 1 539.75,414 c-9.7,-4 -41.89,-13 -51.24,-6.67 s-31.85,12.07 -21.46,37.55 S482.28,471 482.28,471 a37,37 0 0 1 8.31,8.35 c3.12,4.69 32.19,15.42 39.46,15.42 a71.19,71.19 0 0 1 9.25,.46 s-7.89,6.92 -6.84,10.94 s-2.4,36.2 -2.4,36.2 s8,8.06 11.42,-2.51 l.12,.16 c.64,.87 4.1,4.8 10.61,-.16 a59.48,59.48 0 0 1 8.46,-5.36 l31.52,-4.46 a89.24,89.24 0 0 1 9.87,-.07 c5,.41 9.91,-2.55 13,-4.84 c6.53,2.48 13.87,5.19 17.36,6.18 c7.08,2 39.62,10.73 47.23,8 a10.57,10.57 0 0 0 4.1,-2.92 l7.26,.23 l-3.4,.68 s6.62,.11 15.62,.23 l-.38,.22 l11.29,-.1 c16.52,.15 35.08,.2 37.52,-.35 c3.82,-.85 23.67,-.25 29.52,0 l1.63,0 s21.81,-4.35 12.81,-26.48 c-6.92,-17 -28.19,-21.94 -37.63,-23.3 c2.66,-.53 4.95,-.94 6.47,-1.18 c6.59,-1 19.39,-7 20.43,-9.05 s11.77,-8 14.54,-11.39 S810.11,438.48 803.54,420.71 M622.89,470.44 l-1.07,.35 l-.72,.24 l-1.38,1.36 c-1.1,-.74 -2.28,-1.52 -3.51,-2.32 C618.38,470.2 620.61,470.33 622.89,470.44 m95.31,28.18 h0 " transform="translate(-88.58 -43.42)" fill="url(#3cf802be-0480-4c68-848a-073112220499)"></path><path d="M686.65,365 s15.3,40 24,36 s6.34,-21 8,-25.66 s3.5,-40 3.5,-40 s.84,-25 2.5,-30.06 c1.54,-4.65 2.79,-28.1 3,-31.79 c0,-.32 0,-.49 0,-.49 L726,244 l-9.34,-2.33 l-21.66,8 l-3,17.13 l-1.17,6.69 l-.5,2.85 " transform="translate(-88.58 -43.42)" fill="#be6f72"></path><path d="M691.69,358.3 s14.6,11.95 19,13 s7.1,10.37 7.1,10.37 " transform="translate(-88.58 -43.42)" opacity="0.1"></path><path d="M567,366.75 s-15.3,40 -24,36 s-6.34,-21 -8,-25.66 s-3.5,-40 -3.5,-40 s-.84,-25 -2.5,-30.06 c-1.54,-4.65 -2.79,-28.1 -3,-31.79 c0,-.32 0,-.49 0,-.49 l1.66,-29 l9.34,-2.33 l21.66,8 l3,17.13 l1.17,6.69 l.5,2.85 " transform="translate(-88.58 -43.42)" fill="#be6f72"></path><rect x="543.9" y="109.27" width="34.15" height="53.23" fill="#3e373a"></rect><rect x="543.9" y="109.27" width="34.15" height="53.23" opacity="0.1"></rect><path d="M561,406.59 s-11.67,12.83 -7.34,15.16 s32.34,46 32.34,46 s92,11.33 109.35,-5.67 s17,-47.37 17,-47.37 s-13.94,3 -15.46,1.37 s-9.87,-9.49 -9.87,-9.49 S569,399.43 561,406.59 " transform="translate(-88.58 -43.42)" fill="#4b4b5b"></path><path d="M561,406.59 s-11.67,12.83 -7.34,15.16 s32.34,46 32.34,46 s92,11.33 109.35,-5.67 s17,-47.37 17,-47.37 s-13.94,3 -15.46,1.37 s-9.87,-9.49 -9.87,-9.49 S569,399.43 561,406.59 " transform="translate(-88.58 -43.42)" opacity="0.02"></path><path d="M726.62,244.42 l-30,24 l-9.07,.66 l-3.33,.24 l-55.93,4.1 l-58,-4.24 l-8.63,-.63 l-11,-.8 l-23,-22 s16.28,-17.44 30.54,-29.21 c5.62,-4.65 10.93,-8.41 14.8,-9.89 l.66,-.23 A16.46,16.46 0 0 0 580,202 c11.26,-11.61 21.67,-40.26 21.67,-40.26 s49.67,-25.66 43.67,8 s22.33,25.34 22.33,25.34 l9.34,4.26 l3.69,1.69 l9.41,4.31 l21.23,9.74 C728,222.75 726.62,244.42 726.62,244.42 " transform="translate(-88.58 -43.42)" fill="#be6f72"></path><circle cx="537.38" cy="101.06" r="44.67" opacity="0.1"></circle><path d="M726.69,276.24 H526 c0,-.32 0,-.49 0,-.49 l1.66,-29 s16.28,-17.44 30.54,-29.21 l126,-5 l5.86,-6.18 l21.23,9.74 c16.67,7.66 15.33,29.33 15.33,29.33 S728.9,270.54 726.69,276.24 " transform="translate(-88.58 -43.42)" opacity="0.1"></path><path d="M726.69,275.24 H526 c0,-.32 0,-.49 0,-.49 l1.66,-29 s16.28,-17.44 30.54,-29.21 l126,-5 l5.86,-6.18 l21.23,9.74 c16.67,7.66 15.33,29.33 15.33,29.33 S728.9,269.54 726.69,275.24 " transform="translate(-88.58 -43.42)" fill="#e7c7ca"></path><path d="M593.79,193.92 s31.66,40.34 73.83,-.83 s4.67,91.83 4.67,91.83 l-91,10.8 " transform="translate(-88.58 -43.42)" opacity="0.1"></path><path d="M593.79,195.92 s31.66,40.34 73.83,-.83 s4.67,91.83 4.67,91.83 l-91,10.8 " transform="translate(-88.58 -43.42)" fill="#e7c7ca"></path><path d="M680.65,203 M684,254.09 l3.59,17 l2.74,13 s7,100 5,105 s1,9 1.42,11.66 s-.42,9.34 -.09,12.34 s0,4.33 -7.66,3.26 s-18.34,-2.93 -18.34,-2.93 s-27,2 -36.33,-1.33 s-27,-3.34 -27,-3.34 s-26.67,.67 -35.33,-.33 s-13.34,10.67 -19,7.33 s6.66,-35.66 10.66,-45 s-5.33,-33 -5.33,-33 l12,-66.57 L573,256.09 V208.65 l.66,-.23 A16.46,16.46 0 0 0 580,204 l3,47.74 l94,3.34 V201.35 " transform="translate(-88.58 -43.42)" opacity="0.1"></path><path d="M680.65,201 M684,252.09 l3.59,17 l2.74,13 s7,100 5,105 s1,9 1.42,11.66 s-.42,9.34 -.09,12.34 s0,4.33 -7.66,3.26 s-18.34,-2.93 -18.34,-2.93 s-27,2 -36.33,-1.33 s-27,-3.34 -27,-3.34 s-26.67,.67 -35.33,-.33 s-13.34,10.67 -19,7.33 s6.66,-35.66 10.66,-45 s-5.33,-33 -5.33,-33 l12,-66.57 L573,254.09 V206.65 l.66,-.23 A16.46,16.46 0 0 0 580,202 l3,47.74 l94,3.34 V199.35 " transform="translate(-88.58 -43.42)" fill="#e7c7ca"></path><path d="M691.46,94.38 c-.57,-2.09 -1.36,-4.26 -3,-5.66 a12.28,12.28 0 0 0 -5.28,-2.16 A104.32,104.32 0 0 0 669.3,83.9 a22.22,22.22 0 0 0 -3,-6.23 C656.5,63.83 642,50.78 624.94,47.83 c-8.93,-1.55 -19.28,-.16 -25,6.88 c-3.14,3.87 -4.49,9 -7.66,12.8 c-6.11,7.38 -17.14,8.29 -24.84,14 c-4.11,3 -7.09,7.35 -10,11.57 c-3.15,4.57 -6.39,9.33 -7.39,14.79 c-2,10.91 5.21,21.31 6.54,32.32 c3,24.63 -23.4,46.48 -18.41,70.78 c2.91,14.17 16,24.15 29.54,29.21 c4.77,1.79 10.22,3.57 12.45,8.15 c1,2 1.17,4.31 2.11,6.33 c3.16,6.74 13.55,7 19.13,2.09 s7.34,-12.85 8,-20.26 c2.68,-32.36 -10.28,-64.33 -8.77,-96.77 c.45,-9.81 3.21,-20.94 12,-25.38 c11.83,-6 26.06,4 39.08,2.09 a77.53,77.53 0 0 1 3.74,47.31 c-2.07,8.63 -5.65,17 -5.91,25.9 c-.39,13.55 6.92,25.93 13.24,37.91 a20.17,20.17 0 0 1 2.67,7.31 a17.62,17.62 0 0 1 -1.43,7.65 c-3.57,9.61 -9.73,18.53 -10.43,28.76 a4.65,4.65 0 0 0 .75,3.42 a4.3,4.3 0 0 0 2.58,1.16 c10.8,1.85 20.14,-7.72 25.41,-17.33 A81.24,81.24 0 0 0 692.36,224 c1.09,-20.36 -6.21,-40.39 -5.76,-60.77 C687.12,140.06 697.59,116.73 691.46,94.38 " transform="translate(-88.58 -43.42)" opacity="0.1"></path><path d="M692.46,93.38 c-.57,-2.09 -1.36,-4.26 -3,-5.66 a12.28,12.28 0 0 0 -5.28,-2.16 A104.32,104.32 0 0 0 670.3,82.9 a22.22,22.22 0 0 0 -3,-6.23 C657.5,62.83 643,49.78 625.94,46.83 c-8.93,-1.55 -19.28,-.16 -25,6.88 c-3.14,3.87 -4.49,9 -7.66,12.8 c-6.11,7.38 -17.14,8.29 -24.84,14 c-4.11,3 -7.09,7.35 -10,11.57 c-3.15,4.57 -6.39,9.33 -7.39,14.79 c-2,10.91 5.21,21.31 6.54,32.32 c3,24.63 -23.4,46.48 -18.41,70.78 c2.91,14.17 16,24.15 29.54,29.21 c4.77,1.79 10.22,3.57 12.45,8.15 c1,2 1.17,4.31 2.11,6.33 c3.16,6.74 13.55,7 19.13,2.09 s7.34,-12.85 8,-20.26 c2.68,-32.36 -10.28,-64.33 -8.77,-96.77 c.45,-9.81 3.21,-20.94 12,-25.38 c11.83,-6 26.06,4 39.08,2.09 a77.53,77.53 0 0 1 3.74,47.31 c-2.07,8.63 -5.65,17 -5.91,25.9 c-.39,13.55 6.92,25.93 13.24,37.91 a20.17,20.17 0 0 1 2.67,7.31 a17.62,17.62 0 0 1 -1.43,7.65 c-3.57,9.61 -9.73,18.53 -10.43,28.76 a4.65,4.65 0 0 0 .75,3.42 a4.3,4.3 0 0 0 2.58,1.16 c10.8,1.85 20.14,-7.72 25.41,-17.33 A81.24,81.24 0 0 0 693.36,223 c1.09,-20.36 -6.21,-40.39 -5.76,-60.77 C688.12,139.06 698.59,115.73 692.46,93.38 " transform="translate(-88.58 -43.42)" fill="#3e373a"></path><polygon points="581.79 492.73 621.46 494 615.77 464.58 585.38 467.47 581.79 492.73" fill="#c3c7d9"></polygon><path d="M793.29,466.42 c-2.67,3.33 -13,9.33 -14,11.33 s-13.33,8 -19.67,9 s-26.33,5.34 -30,7.67 c-2.63,1.68 -23.74,7 -37.61,9.95 a106.75,106.75 0 0 1 -11.39,2.05 c-6,.33 -71.66,-22 -71.66,-22 l12.66,-13 l.7,-.24 c3.58,-1.21 20.12,-6.8 29.3,-9.46 c10.34,-3 22.34,-15.33 22.34,-15.33 s17.66,-6 20,-6.67 s-6,-23.33 -6,-23.33 s38.33,-5.32 53.33,-9.83 s49.67,-2.84 56,14.83 S796,463.09 793.29,466.42 " transform="translate(-88.58 -43.42)" fill="#4b4b5b"></path><path d="M618.62,522.75 s-7.66,8 -15.33,7.34 s-34.49,2 -34.49,2 a53.77,53.77 0 0 0 -13.51,7.83 c-6.27,4.94 -9.6,1 -10.22,.16 l-.11,-.16 c-3.34,10.51 -11,2.5 -11,2.5 s3.33,-32 2.31,-36 s6.59,-10.87 6.59,-10.87 l9,-2.29 l22.8,-5.84 l32.67,11.33 " transform="translate(-88.58 -43.42)" fill="#e7c7ca"></path><path d="M551.82,493.26 l-6.75,46.82 l-.11,-.16 c-3.34,10.51 -11,2.5 -11,2.5 s3.33,-32 2.31,-36 s6.59,-10.87 6.59,-10.87 " transform="translate(-88.58 -43.42)" opacity="0.1"></path><path d="M599,360.08 s17.66,6 33,0 " transform="translate(-88.58 -43.42)" opacity="0.1"></path><path d="M659.29,371.42 s7.33,3.66 13,0 " transform="translate(-88.58 -43.42)" opacity="0.1"></path><path d="M659.29,380.1 s12.33,1.65 14.67,-1.68 " transform="translate(-88.58 -43.42)" opacity="0.1"></path><path d="M655.29,398.75 s23.16,-3 28.91,-7 " transform="translate(-88.58 -43.42)" opacity="0.1"></path><path d="M584.62,391.75 s13,7.33 22.67,7 " transform="translate(-88.58 -43.42)" opacity="0.1"></path><path d="M692,504.37 a106.75,106.75 0 0 1 -11.39,2.05 c-6,.33 -71.66,-22 -71.66,-22 l12.66,-13 l.7,-.24 c2,1.41 3.64,2.62 4.81,3.54 c5.51,4.34 10.83,-1.33 12.83,-1.33 s19.33,14.33 19.33,14.33 s16,3.67 18.67,7 s12,2.67 13.66,5 C692.11,500.44 692.17,502.21 692,504.37 " transform="translate(-88.58 -43.42)" opacity="0.1"></path><path d="M568.8,417.75 s-16.18,.93 -25.51,-3 s-40.33,-13 -49.33,-6.63 s-30.67,12 -20.67,37.34 s14.67,26 14.67,26 a36.1,36.1 0 0 1 8,8.3 c3,4.67 31,15.33 38,15.33 s19.33,0 36.66,12 s33,13.34 33,13.34 s22,9 28.85,11 s38.15,10.66 45.49,8 s12,-19.34 12,-19.34 s3.33,-15 1.66,-17.33 s-11,-1.67 -13.66,-5 s-18.67,-7 -18.67,-7 S642,476.42 640,476.42 s-7.32,5.66 -12.83,1.33 a292.69,292.69 0 0 0 -34.51,-22 C580,449.08 568.8,417.75 568.8,417.75 " transform="translate(-88.58 -43.42)" fill="#4b4b5b"></path><path d="M536.27,427.42 a19.1,19.1 0 0 1 16.39,4.33 c8,6.67 34.92,20.06 34.92,20.06 " transform="translate(-88.58 -43.42)" opacity="0.1"></path><path d="M736.29,427 s-35.67,5.4 -42.33,12.73 " transform="translate(-88.58 -43.42)" opacity="0.1"></path><path d="M777.29,537.42 l-1.57,0 c-5.64,-.2 -24.75,-.8 -28.43,0 c-4.33,1 -61.67,0 -61.67,0 l11.21,-2.33 s-4.16,-14.58 -1.52,-15.79 c0,0 -15,-9.88 -3.69,-16.55 s23.5,-3.86 23.5,-3.86 l28.39,-9.62 l5.45,-1.85 s32,1.67 40.66,23.67 S777.29,537.42 777.29,537.42 " transform="translate(-88.58 -43.42)" fill="#e7c7ca"></path><path d="M777.29,537.42 l-1.57,0 c9.31,-7.68 30.37,-31.06 -32.21,-48.1 l5.45,-1.85 s32,1.67 40.66,23.67 S777.29,537.42 777.29,537.42 " transform="translate(-88.58 -43.42)" opacity="0.1"></path><circle cx="629.88" cy="466.33" r="1.75" fill="#4b4b5b"></circle><circle cx="619.71" cy="469.22" r="1.75" fill="#4b4b5b"></circle><g opacity="0.1"><path d="M658.74,142.83A77.59,77.59,0,0,0,653,110.69c-13,1.94-27.24-8.09-39.08-2.09-8.76,4.44-11.51,15.57-12,25.38-.12,2.59-.14,5.18-.09,7.77,0-.92,0-1.85.09-2.77.46-9.81,3.21-20.94,12-25.38,11.84-6,26.06,4,39.08,2.09A77.38,77.38,0,0,1,658.74,142.83Z" transform="translate(-88.58 -43.42)"></path><path d="M558,141a33.32,33.32,0,0,0-.13-6.54c-1.06-8.8-5.87-17.21-6.74-25.79-1.12,10.35,5.47,20.29,6.74,30.79C558,140,558,140.48,558,141Z" transform="translate(-88.58 -43.42)"></path><path d="M610.69,230.74c-.62,7.42-2.37,15.35-8,20.27s-16,4.65-19.13-2.09c-1-2-1.15-4.33-2.12-6.33-2.22-4.58-7.68-6.36-12.45-8.15-13.55-5.07-26.62-15-29.53-29.21a30.68,30.68,0,0,1-.53-3.9,31.52,31.52,0,0,0,.53,8.9c2.91,14.17,16,24.14,29.53,29.21,4.77,1.79,10.23,3.57,12.45,8.15,1,2,1.17,4.31,2.12,6.33,3.15,6.74,13.54,7,19.13,2.09s7.33-12.85,8-20.27A114.29,114.29,0,0,0,611,224C611,226.27,610.87,228.51,610.69,230.74Z" transform="translate(-88.58 -43.42)"></path><path d="M687.93,157.49c0,1.45,0,2.89,0,4.33.56-18.6,7.38-37.3,6.71-55.51C694.12,123.15,688.31,140.37,687.93,157.49Z" transform="translate(-88.58 -43.42)"></path><path d="M666.47,232.73a12.89,12.89,0,0,0,.23-3.61,20,20,0,0,0-2.67-7.31c-5.78-11-12.37-22.26-13.15-34.47,0,.52-.07,1-.08,1.56-.4,13.54,6.91,25.93,13.23,37.91A24,24,0,0,1,666.47,232.73Z" transform="translate(-88.58 -43.42)"></path><path d="M693.68,218.26a81.37,81.37,0,0,1-10.09,34.52c-5.28,9.61-14.61,19.18-25.42,17.33a4.25,4.25,0,0,1-2.58-1.17,2.5,2.5,0,0,1-.47-.78c-.12.78-.22,1.57-.28,2.37a4.61,4.61,0,0,0,.75,3.41,4.25,4.25,0,0,0,2.58,1.17c10.81,1.85,20.14-7.72,25.42-17.33a81.37,81.37,0,0,0,10.09-34.52c.12-2.34.13-4.67.06-7C693.72,216.93,693.72,217.59,693.68,218.26Z" transform="translate(-88.58 -43.42)"></path></g><path stroke="#000" stroke-miterlimit="10" d="M695.31,519.3 s25.31,10.62 42,-12.88 " fill="none" opacity="0.1" transform="translate(-88.58 -43.42)"></path><path stroke="#000" stroke-miterlimit="10" d="M700.29,537.86 s20.67,-13.44 47,-.44 " fill="none" opacity="0.1" transform="translate(-88.58 -43.42)"></path><path stroke="#000" stroke-miterlimit="10" d="M561.93,534.81 s8.68,-19.58 31.86,-4.65 " fill="none" opacity="0.1" transform="translate(-88.58 -43.42)"></path><path d="M533.79,245.25 l17.7,-16 s68.63,-4.5 71.47,18.83 c0,0 24.33,-27.66 75.5,-21.5 l21.65,17.24 l-59.84,26.26 l-58.15,20.17 l-42.83,-19.17 " transform="translate(-88.58 -43.42)" opacity="0.1"></path><path d="M533.79,246.25 l17.7,-16 s68.63,-4.5 71.47,18.83 c0,0 24.33,-27.66 75.5,-21.5 l21.65,17.24 l-59.84,26.26 l-58.15,20.17 l-42.83,-19.17 " transform="translate(-88.58 -43.42)" fill="#d5d6db"></path><polygon points="437.38 204.83 445.21 298.5 528.21 302.67 524.61 209.4 524.54 207.83 437.38 204.83" opacity="0.1"></polygon><polygon points="437.38 202.83 445.21 296.5 528.21 300.67 524.61 207.4 524.54 205.83 437.38 202.83" fill="#8ebfa1"></polygon><polygon points="635.33 202.83 549.71 215.67 549.71 309.76 633.38 297.67 635.33 202.83" opacity="0.1"></polygon><polygon points="635.33 200.83 549.71 213.67 549.71 307.76 633.38 295.67 635.33 200.83" fill="#8ebfa1"></polygon><polygon points="615.14 223.79 568.89 228.93 569.9 244.69 615.11 239.75 615.14 223.79" fill="#fff" opacity="0.3"></polygon><path d="M538.29,390.08 M543,402.75 s7,6 14.66,3 s14.34,-4.49 17.67,-7.41 s8,-17.59 8,-17.59 s4.67,-16 9.33,-20 s17,-59.11 0,-53.72 s-30,55.39 -30,55.39 s-3,3.66 -7.33,4 s-13,-.67 -14.67,3 S533.29,382.75 538.29,390.08 " transform="translate(-88.58 -43.42)" fill="#be6f72"></path><path d="M638.29,259.08 a28.8,28.8 0 0 1 -25.11,-6.26 l3.61,93.26 s8.5,9.2 21.5,7.1 " transform="translate(-88.58 -43.42)" opacity="0.1"></path><path d="M638.29,257.08 a28.8,28.8 0 0 1 -25.11,-6.26 l3.61,93.26 s8.5,9.2 21.5,7.1 " transform="translate(-88.58 -43.42)" fill="#8ebfa1"></path><path d="M638.29,257.08 a28.8,28.8 0 0 1 -25.11,-6.26 l3.61,93.26 s8.5,9.2 21.5,7.1 " transform="translate(-88.58 -43.42)" opacity="0.1"></path><path d="M640.29,246.57 s34.83,-10.65 43.91,-9.15 " transform="translate(-88.58 -43.42)" opacity="0.1"></path><path d="M601.33,241.92 s-33.76,-8 -39.4,-5.73 " transform="translate(-88.58 -43.42)" opacity="0.1"></path><path d="M662.25,247.9 s23.29,-8.54 31.71,-4.48 " transform="translate(-88.58 -43.42)" opacity="0.1"></path><path d="M650.52,462.13 A76.56,76.56 0 0 1 662,455 c6,-2.89 17,-10.39 17,-10.39 " transform="translate(-88.58 -43.42)" opacity="0.1"></path><path d="M561.93,360.08 s-14.61,11.95 -19,13 s-7.1,10.37 -7.1,10.37 " transform="translate(-88.58 -43.42)" opacity="0.1"></path><path d="M715.32,388.3 M710.66,401 s-7,6 -14.67,3 s-14.33,-4.49 -17.67,-7.41 s-8,-17.59 -8,-17.59 s-4.66,-16 -9.33,-20 s-17,-59.11 0,-53.72 s30,55.39 30,55.39 s3,3.66 7.33,4 s13,-.67 14.67,3 S720.32,381 715.32,388.3 " transform="translate(-88.58 -43.42)" fill="#be6f72"></path><path d="M707.15,364.94 s9.55,6.14 9.51,13.48 " transform="translate(-88.58 -43.42)" opacity="0.1"></path><circle cx="537.54" cy="98.87" r="44.67" fill="#be6f72"></circle><path d="M598.07,130.3 c5.42,-.85 10.17,-4 15.35,-5.81 c11.59,-4.07 24.41,-1.28 36.14,2.39 c4.5,1.41 9.07,3 13.79,3 s9.73,-1.93 12.14,-6 c2.22,-3.74 1.79,-8.6 -.08,-12.53 s-5,-7.09 -8.16,-10.07 c-10.4,-9.82 -23.3,-19 -37.57,-18 c-5.74,.41 -11.23,2.46 -16.51,4.73 a182,182 0 0 0 -19.38,9.76 c-4.81,2.79 -13.72,6.52 -16.49,11.62 C571,120.88 588.27,131.84 598.07,130.3 " transform="translate(-88.58 -43.42)" fill="#3e373a"></path><path d="M675.49,119.68 c-2.41,4.07 -7.42,6 -12.14,6 s-9.29,-1.53 -13.8,-2.94 c-11.73,-3.67 -24.54,-6.47 -36.14,-2.39 c-5.17,1.81 -9.93,5 -15.35,5.8 c-7.9,1.24 -20.62,-5.64 -22,-14.39 c-1.55,10.11 13.2,18.77 22,17.39 c5.42,-.85 10.18,-4 15.35,-5.8 c11.6,-4.08 24.41,-1.28 36.14,2.39 c4.51,1.41 9.07,3 13.8,2.94 s9.73,-1.92 12.14,-6 a11.71,11.71 0 0 0 1.4,-7.31 A10.78,10.78 0 0 1 675.49,119.68 " transform="translate(-88.58 -43.42)" opacity="0.1"></path><path d="M1038,661.63 s5.93,7.75 -2.74,19.46 s-15.81,21.59 -12.93,28.89 c0,0 13.08,-21.74 23.72,-22.05 S1049.69,674.7 1038,661.63 " transform="translate(-88.58 -43.42)" fill="#8ebfa1"></path><path d="M1038,661.63 a9.6,9.6 0 0 1 1.21,2.43 c10.38,12.2 15.92,23.59 5.93,23.87 c-9.3,.27 -20.45,16.9 -23.12,21.09 a9.78,9.78 0 0 0 .31,1 s13.08,-21.74 23.72,-22.05 S1049.69,674.7 1038,661.63 " transform="translate(-88.58 -43.42)" opacity="0.1"></path><path d="M1049,671.51 c0,2.73 -.31,4.94 -.68,4.94 s-.69,-2.21 -.69,-4.94 s.38,-1.44 .76,-1.44 S1049,668.78 1049,671.51 " transform="translate(-88.58 -43.42)" fill="#ffd037"></path><path d="M1052.79,674.77 c-2.39,1.3 -4.48,2.09 -4.66,1.76 s1.61,-1.66 4,-3 s1.45,-.36 1.63,0 S1055.19,673.46 1052.79,674.77 " transform="translate(-88.58 -43.42)" fill="#ffd037"></path><path d="M1006.66,661.63 s-5.93,7.75 2.74,19.46 s15.81,21.59 12.92,28.89 c0,0 -13.07,-21.74 -23.72,-22.05 S995,674.7 1006.66,661.63 " transform="translate(-88.58 -43.42)" fill="#8ebfa1"></path><path d="M1006.66,661.63 a9.6,9.6 0 0 0 -1.21,2.43 c-10.38,12.2 -15.92,23.59 -5.93,23.87 c9.29,.27 20.45,16.9 23.12,21.09 a7.72,7.72 0 0 1 -.32,1 s-13.07,-21.74 -23.72,-22.05 S995,674.7 1006.66,661.63 " transform="translate(-88.58 -43.42)" opacity="0.1"></path><path d="M995.64,671.51 c0,2.73 .3,4.94 .68,4.94 s.69,-2.21 .69,-4.94 s-.39,-1.44 -.76,-1.44 S995.64,668.78 995.64,671.51 " transform="translate(-88.58 -43.42)" fill="#ffd037"></path><path d="M991.86,674.77 c2.39,1.3 4.48,2.09 4.66,1.76 s-1.61,-1.66 -4,-3 s-1.45,-.36 -1.63,0 S989.46,673.46 991.86,674.77 " transform="translate(-88.58 -43.42)" fill="#ffd037"></path><ellipse cx="933.75" cy="716.37" rx="62" ry="9.51" fill="#8ebfa1" opacity="0.1"></ellipse><path d="M1054.24,699.53 l-.3,2.42 l-.42,3.42 l-.17,1.43 l-.42,3.42 l-.18,1.43 l-.41,3.41 l-4.75,38.9 c-.42,3.47 -6.09,6.18 -12.94,6.18 H1010 c-6.85,0 -12.51,-2.71 -12.94,-6.18 l-4.75,-38.9 l-.42,-3.41 l-.17,-1.43 l-.42,-3.42 l-.18,-1.43 l-.41,-3.42 l-.3,-2.42 c-.23,-2 2.83,-3.62 6.71,-3.62 h50.42 C1051.41,695.91 1054.48,697.56 1054.24,699.53 " transform="translate(-88.58 -43.42)" fill="#65617d"></path><polygon points="965.36 658.53 964.95 661.95 902.55 661.95 902.13 658.53 965.36 658.53" fill="#9d9cb5"></polygon><polygon points="964.77 663.38 964.36 666.8 903.14 666.8 902.72 663.38 964.77 663.38" fill="#9d9cb5"></polygon><polygon points="964.18 668.23 963.76 671.65 903.73 671.65 903.32 668.23 964.18 668.23" fill="#9d9cb5"></polygon></svg>